<svg id="Layer_1" data-name="Layer 1" xmlns="http://www.w3.org/2000/svg" viewBox="0 0 888.27 325.8"><defs><style>.cls-1{fill:#1c4165;}.cls-2{fill:#e2dddb;}.cls-3{fill:#0394d2;}</style></defs><path class="cls-1" d="M3.08,298.64a.75.75,0,0,1,.75-.75h8.8c4.76,0,8.18,3.15,8.18,7.27,0,3-2.24,5.19-4.09,6.25,2.08.87,4.92,2.79,4.92,6.41,0,4.4-3.62,7.59-8.57,7.59H3.83a.76.76,0,0,1-.75-.75Zm10,23.15a4.18,4.18,0,0,0,4.24-4.28c0-2.4-2.28-4.13-4.83-4.13H7.05v8.41Zm-.63-12a4,4,0,0,0,4-4.21,3.8,3.8,0,0,0-4-4H7.09v8.25Z"/><path class="cls-1" d="M23.84,324.38,35.9,297.93a1,1,0,0,1,.67-.43H37a.92.92,0,0,1,.66.43l12,26.45a.7.7,0,0,1-.67,1H46.48a.93.93,0,0,1-.91-.59l-2.43-5.39H30.28c-.78,1.81-1.61,3.58-2.39,5.39a1,1,0,0,1-.91.59H24.51A.7.7,0,0,1,23.84,324.38Zm17.8-8.33-4.83-10.77h-.2l-4.79,10.77Z"/><path class="cls-1" d="M65.58,297.5a13.63,13.63,0,0,1,9.51,3.65.72.72,0,0,1,0,1.1L73.4,304c-.27.36-.63.36-1,0a10.66,10.66,0,0,0-6.8-2.63,10.2,10.2,0,0,0,0,20.4,10.55,10.55,0,0,0,6.76-2.59.71.71,0,0,1,.94,0l1.81,1.77a.74.74,0,0,1,0,1.06,13.49,13.49,0,0,1-9.55,3.81,14.15,14.15,0,1,1,0-28.3Z"/><path class="cls-1" d="M80.75,298.83a.93.93,0,0,1,1-.94H84a1,1,0,0,1,.94.94v10.89L96,298.28a1,1,0,0,1,.75-.39h3a.82.82,0,0,1,.55,1.42L88.89,310.86l12,13.25a.84.84,0,0,1-.71,1.3H97.07a.84.84,0,0,1-.71-.28L84.92,312.24v12.22a1,1,0,0,1-.94,1H81.7a.94.94,0,0,1-1-1Z"/><path class="cls-1" d="M116.84,297.5a14.28,14.28,0,0,1,9.55,3.65.77.77,0,0,1,0,1.1c-.59.63-1.18,1.22-1.77,1.85-.31.36-.63.32-1,0a10.49,10.49,0,0,0-6.68-2.67,10.21,10.21,0,0,0,0,20.4,13.73,13.73,0,0,0,5.89-1.34v-4.4H119a.72.72,0,0,1-.75-.71v-2.28a.72.72,0,0,1,.75-.74h7.15a.73.73,0,0,1,.71.74c0,3.15,0,6.37,0,9.52a1,1,0,0,1-.31.62,19.62,19.62,0,0,1-9.75,2.6,14.15,14.15,0,1,1,0-28.3Z"/><path class="cls-1" d="M133.07,298.64a.75.75,0,0,1,.75-.75h10.69a8.48,8.48,0,0,1,8.57,8.41,8.72,8.72,0,0,1-5.82,8l5.39,10a.75.75,0,0,1-.67,1.14h-3.07a.73.73,0,0,1-.63-.36l-5.23-10.41h-5.93v10a.78.78,0,0,1-.75.75h-2.55a.76.76,0,0,1-.75-.75Zm11.12,12.62a4.89,4.89,0,0,0,4.8-4.88,4.82,4.82,0,0,0-4.8-4.68h-7v9.56Z"/><path class="cls-1" d="M171.32,297.5a14.15,14.15,0,1,1-14.11,14.19A14.13,14.13,0,0,1,171.32,297.5Zm0,24.37a10.22,10.22,0,1,0-10.18-10.18A10.22,10.22,0,0,0,171.32,321.87Z"/><path class="cls-1" d="M190.73,298.64a.78.78,0,0,1,.75-.75h2.63a.74.74,0,0,1,.75.75v16.23c0,3.93,2.52,7,6.53,7s6.6-3,6.6-6.92V298.64a.74.74,0,0,1,.75-.75h2.63a.78.78,0,0,1,.75.75v16.51a10.7,10.7,0,0,1-21.39,0Z"/><path class="cls-1" d="M219.39,298.21a.73.73,0,0,1,.75-.71h1l17.06,19.73h0V298.64a.74.74,0,0,1,.74-.75h2.52a.78.78,0,0,1,.75.75v26.45a.75.75,0,0,1-.75.71h-1L223.4,305.52h0v19.14a.76.76,0,0,1-.75.75h-2.47a.78.78,0,0,1-.75-.75Z"/><path class="cls-1" d="M249.85,298.64a.74.74,0,0,1,.71-.75h9a13.76,13.76,0,1,1,0,27.52h-9a.75.75,0,0,1-.71-.75Zm9.2,23a10,10,0,0,0,0-20h-5.19v20Z"/><path class="cls-1" d="M285.94,321.44c.35-.51.66-1.1,1-1.62a.89.89,0,0,1,1.33-.31c.24.2,3.27,2.71,6.29,2.71,2.72,0,4.44-1.65,4.44-3.65,0-2.36-2-3.86-5.93-5.47s-7.15-3.77-7.15-8.33c0-3.07,2.35-7.27,8.6-7.27a13.34,13.34,0,0,1,7.28,2.32.93.93,0,0,1,.23,1.33l-1,1.5a.94.94,0,0,1-1.38.39c-.27-.16-3-2-5.3-2-3.31,0-4.45,2.09-4.45,3.54,0,2.24,1.73,3.62,5,5,4.56,1.84,8.45,4,8.45,8.8,0,4.09-3.66,7.43-8.77,7.43a12.74,12.74,0,0,1-8.45-3.11C285.82,322.38,285.54,322.1,285.94,321.44Z"/><path class="cls-1" d="M321,297.5a13.63,13.63,0,0,1,9.51,3.65.74.74,0,0,1,0,1.1L328.82,304c-.28.36-.63.36-1,0a10.68,10.68,0,0,0-6.8-2.63,10.2,10.2,0,0,0,0,20.4,10.57,10.57,0,0,0,6.76-2.59.71.71,0,0,1,.94,0l1.81,1.77a.76.76,0,0,1,0,1.06A13.51,13.51,0,0,1,321,325.8a14.15,14.15,0,1,1,0-28.3Z"/><path class="cls-1" d="M336.17,298.64a.74.74,0,0,1,.75-.75h10.69a8.49,8.49,0,0,1,8.57,8.41,8.72,8.72,0,0,1-5.82,8l5.38,10a.74.74,0,0,1-.66,1.14H352a.73.73,0,0,1-.63-.36l-5.23-10.41h-5.93v10a.78.78,0,0,1-.75.75h-2.55a.75.75,0,0,1-.75-.75Zm11.12,12.62a4.89,4.89,0,0,0,4.8-4.88,4.82,4.82,0,0,0-4.8-4.68h-7v9.56Z"/><path class="cls-1" d="M362.31,298.64a.74.74,0,0,1,.75-.75h15.72a.74.74,0,0,1,.74.75v2.2a.75.75,0,0,1-.74.75H366.36v8h10.49a.77.77,0,0,1,.75.74v2.2a.74.74,0,0,1-.75.75H366.36v8.45h12.42a.74.74,0,0,1,.74.75v2.16a.75.75,0,0,1-.74.75H363.06a.75.75,0,0,1-.75-.75Z"/><path class="cls-1" d="M385.46,298.64a.74.74,0,0,1,.75-.75h15.72a.75.75,0,0,1,.75.75v2.2a.76.76,0,0,1-.75.75H389.51v8H400a.77.77,0,0,1,.75.74v2.2a.74.74,0,0,1-.75.75H389.51v8.45h12.42a.75.75,0,0,1,.75.75v2.16a.76.76,0,0,1-.75.75H386.21a.75.75,0,0,1-.75-.75Z"/><path class="cls-1" d="M408.61,298.21a.74.74,0,0,1,.75-.71h1l17.06,19.73h0V298.64a.75.75,0,0,1,.75-.75h2.51a.77.77,0,0,1,.75.75v26.45a.74.74,0,0,1-.75.71h-1l-17.06-20.28h0v19.14a.75.75,0,0,1-.74.75h-2.48a.78.78,0,0,1-.75-.75Z"/><path class="cls-1" d="M439.08,298.64a.77.77,0,0,1,.74-.75h2.6a.77.77,0,0,1,.74.75v26a.77.77,0,0,1-.74.75h-2.6a.77.77,0,0,1-.74-.75Z"/><path class="cls-1" d="M450.79,298.21a.73.73,0,0,1,.75-.71h1l17.06,19.73h0V298.64a.74.74,0,0,1,.74-.75h2.52a.78.78,0,0,1,.75.75v26.45a.75.75,0,0,1-.75.71h-1L454.8,305.52h0v19.14a.76.76,0,0,1-.75.75h-2.47a.78.78,0,0,1-.75-.75Z"/><path class="cls-1" d="M493.4,297.5a14.28,14.28,0,0,1,9.55,3.65.77.77,0,0,1,0,1.1c-.59.63-1.18,1.22-1.77,1.85-.32.36-.63.32-1,0a10.5,10.5,0,0,0-6.69-2.67,10.21,10.21,0,0,0,0,20.4,13.74,13.74,0,0,0,5.9-1.34v-4.4h-3.85a.72.72,0,0,1-.75-.71v-2.28a.72.72,0,0,1,.75-.74h7.15a.73.73,0,0,1,.71.74c0,3.15,0,6.37,0,9.52a.94.94,0,0,1-.32.62,19.56,19.56,0,0,1-9.74,2.6,14.15,14.15,0,1,1,0-28.3Z"/><path class="cls-1" d="M516.51,321.44c.35-.51.67-1.1,1-1.62a.9.9,0,0,1,1.34-.31c.23.2,3.26,2.71,6.29,2.71,2.71,0,4.44-1.65,4.44-3.65,0-2.36-2.05-3.86-5.94-5.47s-7.15-3.77-7.15-8.33c0-3.07,2.36-7.27,8.61-7.27a13.25,13.25,0,0,1,7.27,2.32.93.93,0,0,1,.24,1.33c-.32.48-.67,1-1,1.5a.92.92,0,0,1-1.37.39c-.28-.16-3-2-5.31-2-3.3,0-4.44,2.09-4.44,3.54,0,2.24,1.73,3.62,5,5,4.56,1.84,8.45,4,8.45,8.8,0,4.09-3.65,7.43-8.76,7.43a12.71,12.71,0,0,1-8.45-3.11A.82.82,0,0,1,516.51,321.44Z"/><path class="cls-1" d="M551.49,297.5a14.15,14.15,0,1,1-14.11,14.19A14.13,14.13,0,0,1,551.49,297.5Zm0,24.37a10.22,10.22,0,1,0-10.18-10.18A10.22,10.22,0,0,0,551.49,321.87Z"/><path class="cls-1" d="M571.26,298.64a.75.75,0,0,1,.75-.75h2.6a.77.77,0,0,1,.74.75v23.11H586a.74.74,0,0,1,.75.75v2.16a.75.75,0,0,1-.75.75H572a.76.76,0,0,1-.75-.75Z"/><path class="cls-1" d="M590,298.64a.78.78,0,0,1,.75-.75h2.63a.74.74,0,0,1,.75.75v16.23c0,3.93,2.52,7,6.53,7s6.6-3,6.6-6.92V298.64a.74.74,0,0,1,.75-.75h2.63a.78.78,0,0,1,.75.75v16.51a10.7,10.7,0,0,1-21.39,0Z"/><path class="cls-1" d="M622.44,301.59H616a.75.75,0,0,1-.75-.75v-2.2a.74.74,0,0,1,.75-.75h16.9a.74.74,0,0,1,.74.75v2.2a.75.75,0,0,1-.74.75h-6.41v23.07a.78.78,0,0,1-.75.75h-2.59a.78.78,0,0,1-.75-.75Z"/><path class="cls-1" d="M637.93,298.64a.77.77,0,0,1,.75-.75h2.59a.78.78,0,0,1,.75.75v26a.78.78,0,0,1-.75.75h-2.59a.78.78,0,0,1-.75-.75Z"/><path class="cls-1" d="M661.75,297.5a14.15,14.15,0,1,1-14.11,14.19A14.13,14.13,0,0,1,661.75,297.5Zm0,24.37a10.22,10.22,0,1,0-10.18-10.18A10.22,10.22,0,0,0,661.75,321.87Z"/><path class="cls-1" d="M681.52,298.21a.73.73,0,0,1,.75-.71h1l17.06,19.73h0V298.64a.74.74,0,0,1,.75-.75h2.51a.78.78,0,0,1,.75.75v26.45a.75.75,0,0,1-.75.71h-1l-17.06-20.28h0v19.14a.75.75,0,0,1-.75.75h-2.47a.78.78,0,0,1-.75-.75Z"/><path class="cls-1" d="M710.21,321.44c.36-.51.67-1.1,1-1.62a.89.89,0,0,1,1.33-.31c.24.2,3.27,2.71,6.29,2.71,2.71,0,4.44-1.65,4.44-3.65,0-2.36-2-3.86-5.93-5.47s-7.16-3.77-7.16-8.33c0-3.07,2.36-7.27,8.61-7.27a13.25,13.25,0,0,1,7.27,2.32.92.92,0,0,1,.24,1.33l-1,1.5A.94.94,0,0,1,724,303c-.27-.16-3-2-5.3-2-3.31,0-4.45,2.09-4.45,3.54,0,2.24,1.73,3.62,5,5,4.55,1.84,8.45,4,8.45,8.8,0,4.09-3.66,7.43-8.77,7.43a12.74,12.74,0,0,1-8.45-3.11C710.1,322.38,709.82,322.1,710.21,321.44Z"/><polygon class="cls-2" points="777.76 49.88 736.64 58.22 828.08 150.48 835.98 109.34 777.76 49.88"/><path class="cls-3" d="M858.79,142.09a7.52,7.52,0,0,0,4.9-5.51S888.81,1.06,888.26,0C887.85-.8,751,22.77,751,22.77a7.52,7.52,0,0,0-5.57,4.83l-8.8,30.5L842.73,41.18s4.25-.73,3.49,3.5L828,150.36Z"/><path class="cls-1" d="M679.67,246.13H697v-99h31.34V131.66h-80v15.43h31.35Zm-148.07,0H549V164.78h.34l51.75,81.35h16.41V131.66H600.1V213h-.33L548,131.66H531.6Zm-60.34,0h17.35V131.66H471.26Zm-121.15,0h17.36V197.26h22.2l23.62,48.87h20.58l-26.52-50.8c13.82-4.83,22.17-16.89,22.17-31.69a32.18,32.18,0,0,0-11.4-24.42c-6.11-5.31-13.67-7.56-23.3-7.56H350.11Zm17.36-99h27.18c5.94,0,9.48,1.13,12.7,3.54,3.53,2.57,5.79,7.08,5.79,13,0,9.66-6.43,18.19-19.45,18.19H367.47ZM228.92,207.38c0,23.8,18,39.72,40.67,39.72s40.68-15.92,40.68-39.72V131.66H292.91v73.8c0,15.75-10.13,24.27-23.32,24.27s-23.31-8.52-23.31-24.27v-73.8H228.92Zm-114.83,24C126.16,242,141,247.1,157.83,247.1c24.6,0,40.2-12.24,40.2-33.29,0-15.58-10-30.39-31.35-32.95-5.46-.65-9.81-1.3-12.86-1.77-11.59-1.77-16.25-8.2-16.25-14.63,0-10.94,8.53-16.4,19.13-16.4,10.13,0,20,3.54,28.3,8.84l9.64-14.31c-10.44-6.91-23-11.9-37.12-11.9-23.64,0-37.3,13.84-37.3,33.45,0,16.56,10.6,29.42,30.38,32.15,6,.81,10,1.46,15.11,2.09,10.29,1.29,14.95,7.4,14.95,15.43,0,9.49-8.52,15.92-22.66,15.92a52.83,52.83,0,0,1-32.48-11.41Zm-34.67,14.8H97.75L56.11,131.66H41.65L0,246.13H18.33l8.83-25.57H70.58Zm-47.27-41,16.57-50H49l16.55,50Z"/></svg>